<?xml version="1.0" encoding="UTF-8" standalone="no"?>
<!DOCTYPE svg PUBLIC "-//W3C//DTD SVG 1.1//EN"
 "http://www.w3.org/Graphics/SVG/1.1/DTD/svg11.dtd">
<!-- Generated by graphviz version 2.40.1 (20161225.0304)
 -->
<!-- Title: RECO Pages: 1 -->
<svg width="2704pt" height="1229pt"
 viewBox="0.00 0.00 2703.89 1229.00" xmlns="http://www.w3.org/2000/svg" xmlns:xlink="http://www.w3.org/1999/xlink">
<g id="graph0" class="graph" transform="scale(1 1) rotate(0) translate(4 1225)">
<title>RECO</title>
<polygon fill="#ffffff" stroke="transparent" points="-4,4 -4,-1225 2699.8893,-1225 2699.8893,4 -4,4"/>
<text text-anchor="middle" x="1347.9446" y="-1205.8" font-family="Times,serif" font-size="14.00" fill="#000000">HGCalRecHit</text>
<!-- 64 -->
<g id="node1" class="node">
<title>64</title>
<g id="a_node1"><a xlink:title="HGCalRecHitProducer">
<ellipse fill="none" stroke="#000000" cx="60.4446" cy="-271" rx="60.3893" ry="18"/>
<text text-anchor="middle" x="60.4446" y="-267.3" font-family="Times,serif" font-size="14.00" fill="#000000">HGCalRecHit</text>
</a>
</g>
</g>
<!-- 552 -->
<g id="node2" class="node">
<title>552</title>
<g id="a_node2"><a xlink:title="LogErrorHarvester">
<polygon fill="none" stroke="#ff0000" points="2676.3893,-1198 2557.3893,-1198 2557.3893,-1160 2676.3893,-1160 2676.3893,-1198"/>
<text text-anchor="middle" x="2616.8893" y="-1182.8" font-family="Times,serif" font-size="14.00" fill="#000000">logErrorHarvester</text>
<text text-anchor="middle" x="2616.8893" y="-1167.8" font-family="Times,serif" font-size="14.00" fill="#000000">LogErrorHarvester</text>
</a>
</g>
</g>
<!-- 64&#45;&gt;552 -->
<g id="edge1" class="edge">
<title>64&#45;&gt;552</title>
<path fill="none" stroke="#000000" d="M24.8893,-285.8599C24.8893,-404.483 24.8893,-1193.25 24.8893,-1193.25 24.8893,-1193.25 2547.2592,-1193.25 2547.2592,-1193.25"/>
<polygon fill="#000000" stroke="#000000" points="2547.2592,-1196.7501 2557.2592,-1193.25 2547.2592,-1189.7501 2547.2592,-1196.7501"/>
</g>
<!-- 440 -->
<g id="node3" class="node">
<title>440</title>
<g id="a_node3"><a xlink:title="HGCalPhotonIDValueMapProducer">
<polygon fill="none" stroke="#ff0000" points="377.3893,-318 163.3893,-318 163.3893,-280 377.3893,-280 377.3893,-318"/>
<text text-anchor="middle" x="270.3893" y="-302.8" font-family="Times,serif" font-size="14.00" fill="#000000">hgcPhotonID</text>
<text text-anchor="middle" x="270.3893" y="-287.8" font-family="Times,serif" font-size="14.00" fill="#000000">HGCalPhotonIDValueMapProducer</text>
</a>
</g>
</g>
<!-- 64&#45;&gt;440 -->
<g id="edge2" class="edge">
<title>64&#45;&gt;440</title>
<path fill="none" stroke="#000000" d="M100.4278,-284.5C100.4278,-284.5 153.2932,-284.5 153.2932,-284.5"/>
<polygon fill="#000000" stroke="#000000" points="153.2932,-288.0001 163.2932,-284.5 153.2931,-281.0001 153.2932,-288.0001"/>
</g>
<!-- 442 -->
<g id="node4" class="node">
<title>442</title>
<g id="a_node4"><a xlink:title="HGCalLayerClusterProducer">
<polygon fill="none" stroke="#000000" points="357.3893,-898 183.3893,-898 183.3893,-860 357.3893,-860 357.3893,-898"/>
<text text-anchor="middle" x="270.3893" y="-882.8" font-family="Times,serif" font-size="14.00" fill="#000000">hgcalLayerClusters</text>
<text text-anchor="middle" x="270.3893" y="-867.8" font-family="Times,serif" font-size="14.00" fill="#000000">HGCalLayerClusterProducer</text>
</a>
</g>
</g>
<!-- 64&#45;&gt;442 -->
<g id="edge3" class="edge">
<title>64&#45;&gt;442</title>
<path fill="none" stroke="#000000" d="M48.8893,-288.867C48.8893,-389.2948 48.8893,-879 48.8893,-879 48.8893,-879 173.1646,-879 173.1646,-879"/>
<polygon fill="#000000" stroke="#000000" points="173.1646,-882.5001 183.1646,-879 173.1645,-875.5001 173.1646,-882.5001"/>
</g>
<!-- 56 -->
<g id="node5" class="node">
<title>56</title>
<g id="a_node5"><a xlink:title="PoolOutputModule">
<polygon fill="none" stroke="#ff0000" points="2695.8893,-744 2537.8893,-744 2537.8893,-706 2695.8893,-706 2695.8893,-744"/>
<text text-anchor="middle" x="2616.8893" y="-728.8" font-family="Times,serif" font-size="14.00" fill="#000000">FEVTDEBUGHLToutput</text>
<text text-anchor="middle" x="2616.8893" y="-713.8" font-family="Times,serif" font-size="14.00" fill="#000000">PoolOutputModule</text>
</a>
</g>
</g>
<!-- 64&#45;&gt;56 -->
<g id="edge4" class="edge">
<title>64&#45;&gt;56</title>
<path fill="none" stroke="#000000" d="M72.8893,-288.753C72.8893,-370.8829 72.8893,-710 72.8893,-710 72.8893,-710 2527.6108,-710 2527.6108,-710"/>
<polygon fill="#000000" stroke="#000000" points="2527.6108,-713.5001 2537.6108,-710 2527.6108,-706.5001 2527.6108,-713.5001"/>
</g>
<!-- 319 -->
<g id="node6" class="node">
<title>319</title>
<g id="a_node6"><a xlink:title="ElectronSeedProducer">
<polygon fill="none" stroke="#ff0000" points="383.8893,-262 156.8893,-262 156.8893,-224 383.8893,-224 383.8893,-262"/>
<text text-anchor="middle" x="270.3893" y="-246.8" font-family="Times,serif" font-size="14.00" fill="#000000">ecalDrivenElectronSeedsFromMultiCl</text>
<text text-anchor="middle" x="270.3893" y="-231.8" font-family="Times,serif" font-size="14.00" fill="#000000">ElectronSeedProducer</text>
</a>
</g>
</g>
<!-- 64&#45;&gt;319 -->
<g id="edge5" class="edge">
<title>64&#45;&gt;319</title>
<path fill="none" stroke="#000000" d="M100.4278,-257.5C100.4278,-257.5 146.6528,-257.5 146.6528,-257.5"/>
<polygon fill="#000000" stroke="#000000" points="146.6529,-261.0001 156.6528,-257.5 146.6528,-254.0001 146.6529,-261.0001"/>
</g>
<!-- 1583 -->
<g id="node7" class="node">
<title>1583</title>
<g id="a_node7"><a xlink:title="ElectronSeedProducer">
<polygon fill="none" stroke="#ff0000" points="358.3893,-206 182.3893,-206 182.3893,-168 358.3893,-168 358.3893,-206"/>
<text text-anchor="middle" x="270.3893" y="-190.8" font-family="Times,serif" font-size="14.00" fill="#000000">uncleanedOnlyElectronSeeds</text>
<text text-anchor="middle" x="270.3893" y="-175.8" font-family="Times,serif" font-size="14.00" fill="#000000">ElectronSeedProducer</text>
</a>
</g>
</g>
<!-- 64&#45;&gt;1583 -->
<g id="edge6" class="edge">
<title>64&#45;&gt;1583</title>
<path fill="none" stroke="#000000" d="M96.8893,-256.3683C96.8893,-232.3018 96.8893,-187 96.8893,-187 96.8893,-187 172.3686,-187 172.3686,-187"/>
<polygon fill="#000000" stroke="#000000" points="172.3686,-190.5001 182.3686,-187 172.3685,-183.5001 172.3686,-190.5001"/>
</g>
<!-- 318 -->
<g id="node8" class="node">
<title>318</title>
<g id="a_node8"><a xlink:title="ElectronSeedProducer">
<polygon fill="none" stroke="#ff0000" points="346.8893,-150 193.8893,-150 193.8893,-112 346.8893,-112 346.8893,-150"/>
<text text-anchor="middle" x="270.3893" y="-134.8" font-family="Times,serif" font-size="14.00" fill="#000000">ecalDrivenElectronSeeds</text>
<text text-anchor="middle" x="270.3893" y="-119.8" font-family="Times,serif" font-size="14.00" fill="#000000">ElectronSeedProducer</text>
</a>
</g>
</g>
<!-- 64&#45;&gt;318 -->
<g id="edge7" class="edge">
<title>64&#45;&gt;318</title>
<path fill="none" stroke="#000000" d="M72.8893,-253.2689C72.8893,-215.5969 72.8893,-131 72.8893,-131 72.8893,-131 183.7479,-131 183.7479,-131"/>
<polygon fill="#000000" stroke="#000000" points="183.748,-134.5001 193.7479,-131 183.7479,-127.5001 183.748,-134.5001"/>
</g>
<!-- 439 -->
<g id="node9" class="node">
<title>439</title>
<g id="a_node9"><a xlink:title="HGCalElectronIDValueMapProducer">
<polygon fill="none" stroke="#ff0000" points="380.8893,-94 159.8893,-94 159.8893,-56 380.8893,-56 380.8893,-94"/>
<text text-anchor="middle" x="270.3893" y="-78.8" font-family="Times,serif" font-size="14.00" fill="#000000">hgcElectronID</text>
<text text-anchor="middle" x="270.3893" y="-63.8" font-family="Times,serif" font-size="14.00" fill="#000000">HGCalElectronIDValueMapProducer</text>
</a>
</g>
</g>
<!-- 64&#45;&gt;439 -->
<g id="edge8" class="edge">
<title>64&#45;&gt;439</title>
<path fill="none" stroke="#000000" d="M48.8893,-253.2606C48.8893,-205.0134 48.8893,-75 48.8893,-75 48.8893,-75 149.6393,-75 149.6393,-75"/>
<polygon fill="#000000" stroke="#000000" points="149.6393,-78.5001 159.6393,-75 149.6392,-71.5001 149.6393,-78.5001"/>
</g>
<!-- 443 -->
<g id="node10" class="node">
<title>443</title>
<g id="a_node10"><a xlink:title="HGCalMultiClusterProducer">
<polygon fill="none" stroke="#ff0000" points="597.8893,-412 424.8893,-412 424.8893,-374 597.8893,-374 597.8893,-412"/>
<text text-anchor="middle" x="511.3893" y="-396.8" font-family="Times,serif" font-size="14.00" fill="#000000">hgcalMultiClusters</text>
<text text-anchor="middle" x="511.3893" y="-381.8" font-family="Times,serif" font-size="14.00" fill="#000000">HGCalMultiClusterProducer</text>
</a>
</g>
</g>
<!-- 64&#45;&gt;443 -->
<g id="edge9" class="edge">
<title>64&#45;&gt;443</title>
<path fill="none" stroke="#000000" d="M96.8893,-285.4741C96.8893,-317.7906 96.8893,-393 96.8893,-393 96.8893,-393 414.7489,-393 414.7489,-393"/>
<polygon fill="#000000" stroke="#000000" points="414.7489,-396.5001 424.7489,-393 414.7489,-389.5001 414.7489,-396.5001"/>
</g>
<!-- 804 -->
<g id="node11" class="node">
<title>804</title>
<g id="a_node11"><a xlink:title="PFRecHitProducer">
<polygon fill="none" stroke="#ff0000" points="346.3893,-38 194.3893,-38 194.3893,0 346.3893,0 346.3893,-38"/>
<text text-anchor="middle" x="270.3893" y="-22.8" font-family="Times,serif" font-size="14.00" fill="#000000">particleFlowRecHitHGC</text>
<text text-anchor="middle" x="270.3893" y="-7.8" font-family="Times,serif" font-size="14.00" fill="#000000">PFRecHitProducer</text>
</a>
</g>
</g>
<!-- 64&#45;&gt;804 -->
<g id="edge10" class="edge">
<title>64&#45;&gt;804</title>
<path fill="none" stroke="#000000" d="M24.8893,-256.3622C24.8893,-202.5792 24.8893,-19 24.8893,-19 24.8893,-19 184.0573,-19 184.0573,-19"/>
<polygon fill="#000000" stroke="#000000" points="184.0573,-22.5001 194.0573,-19 184.0572,-15.5001 184.0573,-22.5001"/>
</g>
<!-- 442&#45;&gt;552 -->
<g id="edge24" class="edge">
<title>442&#45;&gt;552</title>
<path fill="none" stroke="#000000" d="M218.8893,-898.3606C218.8893,-966.1177 218.8893,-1188.5 218.8893,-1188.5 218.8893,-1188.5 2547.3137,-1188.5 2547.3137,-1188.5"/>
<polygon fill="#000000" stroke="#000000" points="2547.3138,-1192.0001 2557.3137,-1188.5 2547.3137,-1185.0001 2547.3138,-1192.0001"/>
</g>
<!-- 442&#45;&gt;56 -->
<g id="edge15" class="edge">
<title>442&#45;&gt;56</title>
<path fill="none" stroke="#000000" d="M270.8893,-859.843C270.8893,-815.9775 270.8893,-712 270.8893,-712 270.8893,-712 2527.8264,-712 2527.8264,-712"/>
<polygon fill="#000000" stroke="#000000" points="2527.8265,-715.5001 2537.8264,-712 2527.8264,-708.5001 2527.8265,-715.5001"/>
</g>
<!-- 442&#45;&gt;443 -->
<g id="edge26" class="edge">
<title>442&#45;&gt;443</title>
<path fill="none" stroke="#000000" d="M357.6844,-862C395.3287,-862 430.8893,-862 430.8893,-862 430.8893,-862 430.8893,-422.2597 430.8893,-422.2597"/>
<polygon fill="#000000" stroke="#000000" points="434.3894,-422.2597 430.8893,-412.2597 427.3894,-422.2598 434.3894,-422.2597"/>
</g>
<!-- 383 -->
<g id="node12" class="node">
<title>383</title>
<g id="a_node12"><a xlink:title="FilteredLayerClustersProducer">
<polygon fill="none" stroke="#000000" points="602.8893,-1132 419.8893,-1132 419.8893,-1094 602.8893,-1094 602.8893,-1132"/>
<text text-anchor="middle" x="511.3893" y="-1116.8" font-family="Times,serif" font-size="14.00" fill="#000000">filteredLayerClustersMIP</text>
<text text-anchor="middle" x="511.3893" y="-1101.8" font-family="Times,serif" font-size="14.00" fill="#000000">FilteredLayerClustersProducer</text>
</a>
</g>
</g>
<!-- 442&#45;&gt;383 -->
<g id="edge11" class="edge">
<title>442&#45;&gt;383</title>
<path fill="none" stroke="#000000" d="M253.8893,-898.1492C253.8893,-954.0352 253.8893,-1113 253.8893,-1113 253.8893,-1113 409.8794,-1113 409.8794,-1113"/>
<polygon fill="#000000" stroke="#000000" points="409.8794,-1116.5001 419.8794,-1113 409.8793,-1109.5001 409.8794,-1116.5001"/>
</g>
<!-- 384 -->
<g id="node13" class="node">
<title>384</title>
<g id="a_node13"><a xlink:title="FilteredLayerClustersProducer">
<polygon fill="none" stroke="#000000" points="602.8893,-922 419.8893,-922 419.8893,-884 602.8893,-884 602.8893,-922"/>
<text text-anchor="middle" x="511.3893" y="-906.8" font-family="Times,serif" font-size="14.00" fill="#000000">filteredLayerClustersTrk</text>
<text text-anchor="middle" x="511.3893" y="-891.8" font-family="Times,serif" font-size="14.00" fill="#000000">FilteredLayerClustersProducer</text>
</a>
</g>
</g>
<!-- 442&#45;&gt;384 -->
<g id="edge12" class="edge">
<title>442&#45;&gt;384</title>
<path fill="none" stroke="#000000" d="M357.3958,-891C357.3958,-891 409.633,-891 409.633,-891"/>
<polygon fill="#000000" stroke="#000000" points="409.633,-894.5001 419.633,-891 409.633,-887.5001 409.633,-894.5001"/>
</g>
<!-- 1524 -->
<g id="node14" class="node">
<title>1524</title>
<g id="a_node14"><a xlink:title="TICLCandidateFromTrackstersProducer">
<polygon fill="none" stroke="#000000" points="2234.8893,-962 1998.8893,-962 1998.8893,-924 2234.8893,-924 2234.8893,-962"/>
<text text-anchor="middle" x="2116.8893" y="-946.8" font-family="Times,serif" font-size="14.00" fill="#000000">ticlCandidateFromTracksters</text>
<text text-anchor="middle" x="2116.8893" y="-931.8" font-family="Times,serif" font-size="14.00" fill="#000000">TICLCandidateFromTrackstersProducer</text>
</a>
</g>
</g>
<!-- 442&#45;&gt;1524 -->
<g id="edge13" class="edge">
<title>442&#45;&gt;1524</title>
<path fill="none" stroke="#000000" d="M357.6652,-874C719.1197,-874 2079.8893,-874 2079.8893,-874 2079.8893,-874 2079.8893,-913.7797 2079.8893,-913.7797"/>
<polygon fill="#000000" stroke="#000000" points="2076.3894,-913.7796 2079.8893,-923.7797 2083.3894,-913.7797 2076.3894,-913.7796"/>
</g>
<!-- 1527 -->
<g id="node15" class="node">
<title>1527</title>
<g id="a_node15"><a xlink:title="MultiClustersFromTrackstersProducer">
<polygon fill="none" stroke="#000000" points="2230.3893,-673 2003.3893,-673 2003.3893,-635 2230.3893,-635 2230.3893,-673"/>
<text text-anchor="middle" x="2116.8893" y="-657.8" font-family="Times,serif" font-size="14.00" fill="#000000">ticlMultiClustersFromTrackstersHAD</text>
<text text-anchor="middle" x="2116.8893" y="-642.8" font-family="Times,serif" font-size="14.00" fill="#000000">MultiClustersFromTrackstersProducer</text>
</a>
</g>
</g>
<!-- 442&#45;&gt;1527 -->
<g id="edge14" class="edge">
<title>442&#45;&gt;1527</title>
<path fill="none" stroke="#000000" d="M226.8893,-859.8099C226.8893,-803.8044 226.8893,-644.5 226.8893,-644.5 226.8893,-644.5 1993.2692,-644.5 1993.2692,-644.5"/>
<polygon fill="#000000" stroke="#000000" points="1993.2692,-648.0001 2003.2692,-644.5 1993.2692,-641.0001 1993.2692,-648.0001"/>
</g>
<!-- 1537 -->
<g id="node16" class="node">
<title>1537</title>
<g id="a_node16"><a xlink:title="TrackstersProducer">
<polygon fill="none" stroke="#000000" points="760.8893,-922 638.8893,-922 638.8893,-884 760.8893,-884 760.8893,-922"/>
<text text-anchor="middle" x="699.8893" y="-906.8" font-family="Times,serif" font-size="14.00" fill="#000000">ticlTrackstersTrk</text>
<text text-anchor="middle" x="699.8893" y="-891.8" font-family="Times,serif" font-size="14.00" fill="#000000">TrackstersProducer</text>
</a>
</g>
</g>
<!-- 442&#45;&gt;1537 -->
<g id="edge16" class="edge">
<title>442&#45;&gt;1537</title>
<path fill="none" stroke="#000000" d="M357.5676,-880C475.1162,-880 669.8893,-880 669.8893,-880 669.8893,-880 669.8893,-880.3594 669.8893,-880.3594"/>
<polygon fill="#000000" stroke="#000000" points="666.3896,-873.5936 669.8893,-883.5938 673.3896,-873.5939 666.3896,-873.5936"/>
</g>
<!-- 1525 -->
<g id="node17" class="node">
<title>1525</title>
<g id="a_node17"><a xlink:title="TICLLayerTileProducer">
<polygon fill="none" stroke="#000000" points="585.8893,-828 436.8893,-828 436.8893,-790 585.8893,-790 585.8893,-828"/>
<text text-anchor="middle" x="511.3893" y="-812.8" font-family="Times,serif" font-size="14.00" fill="#000000">ticlLayerTileProducer</text>
<text text-anchor="middle" x="511.3893" y="-797.8" font-family="Times,serif" font-size="14.00" fill="#000000">TICLLayerTileProducer</text>
</a>
</g>
</g>
<!-- 442&#45;&gt;1525 -->
<g id="edge17" class="edge">
<title>442&#45;&gt;1525</title>
<path fill="none" stroke="#000000" d="M357.5763,-864C426.7511,-864 511.8893,-864 511.8893,-864 511.8893,-864 511.8893,-838.2363 511.8893,-838.2363"/>
<polygon fill="#000000" stroke="#000000" points="515.3894,-838.2363 511.8893,-828.2363 508.3894,-838.2364 515.3894,-838.2363"/>
</g>
<!-- 1536 -->
<g id="node18" class="node">
<title>1536</title>
<g id="a_node18"><a xlink:title="TrackstersMergeProducer">
<polygon fill="none" stroke="#000000" points="1962.8893,-957 1804.8893,-957 1804.8893,-919 1962.8893,-919 1962.8893,-957"/>
<text text-anchor="middle" x="1883.8893" y="-941.8" font-family="Times,serif" font-size="14.00" fill="#000000">ticlTrackstersMerge</text>
<text text-anchor="middle" x="1883.8893" y="-926.8" font-family="Times,serif" font-size="14.00" fill="#000000">TrackstersMergeProducer</text>
</a>
</g>
</g>
<!-- 442&#45;&gt;1536 -->
<g id="edge18" class="edge">
<title>442&#45;&gt;1536</title>
<path fill="none" stroke="#000000" d="M322.8893,-898.3132C322.8893,-915.1854 322.8893,-937 322.8893,-937 322.8893,-937 1794.8719,-937 1794.8719,-937"/>
<polygon fill="#000000" stroke="#000000" points="1794.872,-940.5001 1804.8719,-937 1794.8719,-933.5001 1794.872,-940.5001"/>
</g>
<!-- 1529 -->
<g id="node19" class="node">
<title>1529</title>
<g id="a_node19"><a xlink:title="MultiClustersFromTrackstersProducer">
<polygon fill="none" stroke="#000000" points="2501.8893,-1056 2270.8893,-1056 2270.8893,-1018 2501.8893,-1018 2501.8893,-1056"/>
<text text-anchor="middle" x="2386.3893" y="-1040.8" font-family="Times,serif" font-size="14.00" fill="#000000">ticlMultiClustersFromTrackstersMerge</text>
<text text-anchor="middle" x="2386.3893" y="-1025.8" font-family="Times,serif" font-size="14.00" fill="#000000">MultiClustersFromTrackstersProducer</text>
</a>
</g>
</g>
<!-- 442&#45;&gt;1529 -->
<g id="edge19" class="edge">
<title>442&#45;&gt;1529</title>
<path fill="none" stroke="#000000" d="M287.8893,-898.1727C287.8893,-941.5221 287.8893,-1043.3333 287.8893,-1043.3333 287.8893,-1043.3333 2260.5757,-1043.3333 2260.5757,-1043.3333"/>
<polygon fill="#000000" stroke="#000000" points="2260.5757,-1046.8334 2270.5757,-1043.3333 2260.5756,-1039.8334 2260.5757,-1046.8334"/>
</g>
<!-- 381 -->
<g id="node20" class="node">
<title>381</title>
<g id="a_node20"><a xlink:title="FilteredLayerClustersProducer">
<polygon fill="none" stroke="#000000" points="979.8893,-790 796.8893,-790 796.8893,-752 979.8893,-752 979.8893,-790"/>
<text text-anchor="middle" x="888.3893" y="-774.8" font-family="Times,serif" font-size="14.00" fill="#000000">filteredLayerClustersEM</text>
<text text-anchor="middle" x="888.3893" y="-759.8" font-family="Times,serif" font-size="14.00" fill="#000000">FilteredLayerClustersProducer</text>
</a>
</g>
</g>
<!-- 442&#45;&gt;381 -->
<g id="edge20" class="edge">
<title>442&#45;&gt;381</title>
<path fill="none" stroke="#000000" d="M357.6934,-866C528.1833,-866 888.8893,-866 888.8893,-866 888.8893,-866 888.8893,-800.2247 888.8893,-800.2247"/>
<polygon fill="#000000" stroke="#000000" points="892.3894,-800.2246 888.8893,-790.2247 885.3894,-800.2247 892.3894,-800.2246"/>
</g>
<!-- 382 -->
<g id="node21" class="node">
<title>382</title>
<g id="a_node21"><a xlink:title="FilteredLayerClustersProducer">
<polygon fill="none" stroke="#000000" points="1483.8893,-696 1300.8893,-696 1300.8893,-658 1483.8893,-658 1483.8893,-696"/>
<text text-anchor="middle" x="1392.3893" y="-680.8" font-family="Times,serif" font-size="14.00" fill="#000000">filteredLayerClustersHAD</text>
<text text-anchor="middle" x="1392.3893" y="-665.8" font-family="Times,serif" font-size="14.00" fill="#000000">FilteredLayerClustersProducer</text>
</a>
</g>
</g>
<!-- 442&#45;&gt;382 -->
<g id="edge21" class="edge">
<title>442&#45;&gt;382</title>
<path fill="none" stroke="#000000" d="M357.5359,-870C621.2722,-870 1392.8893,-870 1392.8893,-870 1392.8893,-870 1392.8893,-706.2112 1392.8893,-706.2112"/>
<polygon fill="#000000" stroke="#000000" points="1396.3894,-706.2111 1392.8893,-696.2112 1389.3894,-706.2112 1396.3894,-706.2111"/>
</g>
<!-- 1534 -->
<g id="node22" class="node">
<title>1534</title>
<g id="a_node22"><a xlink:title="TrackstersProducer">
<polygon fill="none" stroke="#000000" points="1716.3893,-692 1594.3893,-692 1594.3893,-654 1716.3893,-654 1716.3893,-692"/>
<text text-anchor="middle" x="1655.3893" y="-676.8" font-family="Times,serif" font-size="14.00" fill="#000000">ticlTrackstersHAD</text>
<text text-anchor="middle" x="1655.3893" y="-661.8" font-family="Times,serif" font-size="14.00" fill="#000000">TrackstersProducer</text>
</a>
</g>
</g>
<!-- 442&#45;&gt;1534 -->
<g id="edge22" class="edge">
<title>442&#45;&gt;1534</title>
<path fill="none" stroke="#000000" d="M357.7463,-872C637.318,-872 1491.8893,-872 1491.8893,-872 1491.8893,-872 1491.8893,-680.6667 1491.8893,-680.6667 1491.8893,-680.6667 1584.0427,-680.6667 1584.0427,-680.6667"/>
<polygon fill="#000000" stroke="#000000" points="1584.0428,-684.1668 1594.0427,-680.6667 1584.0427,-677.1668 1584.0428,-684.1668"/>
</g>
<!-- 1526 -->
<g id="node23" class="node">
<title>1526</title>
<g id="a_node23"><a xlink:title="MultiClustersFromTrackstersProducer">
<polygon fill="none" stroke="#000000" points="1768.8893,-845 1541.8893,-845 1541.8893,-807 1768.8893,-807 1768.8893,-845"/>
<text text-anchor="middle" x="1655.3893" y="-829.8" font-family="Times,serif" font-size="14.00" fill="#000000">ticlMultiClustersFromTrackstersEM</text>
<text text-anchor="middle" x="1655.3893" y="-814.8" font-family="Times,serif" font-size="14.00" fill="#000000">MultiClustersFromTrackstersProducer</text>
</a>
</g>
</g>
<!-- 442&#45;&gt;1526 -->
<g id="edge23" class="edge">
<title>442&#45;&gt;1526</title>
<path fill="none" stroke="#000000" d="M313.8893,-859.7396C313.8893,-848.4946 313.8893,-836.5 313.8893,-836.5 313.8893,-836.5 1531.8813,-836.5 1531.8813,-836.5"/>
<polygon fill="#000000" stroke="#000000" points="1531.8814,-840.0001 1541.8813,-836.5 1531.8813,-833.0001 1531.8814,-840.0001"/>
</g>
<!-- 1533 -->
<g id="node24" class="node">
<title>1533</title>
<g id="a_node24"><a xlink:title="TrackstersProducer">
<polygon fill="none" stroke="#000000" points="1190.3893,-754 1068.3893,-754 1068.3893,-716 1190.3893,-716 1190.3893,-754"/>
<text text-anchor="middle" x="1129.3893" y="-738.8" font-family="Times,serif" font-size="14.00" fill="#000000">ticlTrackstersEM</text>
<text text-anchor="middle" x="1129.3893" y="-723.8" font-family="Times,serif" font-size="14.00" fill="#000000">TrackstersProducer</text>
</a>
</g>
</g>
<!-- 442&#45;&gt;1533 -->
<g id="edge25" class="edge">
<title>442&#45;&gt;1533</title>
<path fill="none" stroke="#000000" d="M357.5327,-868C576.0425,-868 1129.8893,-868 1129.8893,-868 1129.8893,-868 1129.8893,-764.0557 1129.8893,-764.0557"/>
<polygon fill="#000000" stroke="#000000" points="1133.3894,-764.0556 1129.8893,-754.0557 1126.3894,-764.0557 1133.3894,-764.0556"/>
</g>
<!-- 1528 -->
<g id="node25" class="node">
<title>1528</title>
<g id="a_node25"><a xlink:title="MultiClustersFromTrackstersProducer">
<polygon fill="none" stroke="#000000" points="1242.8893,-1122 1015.8893,-1122 1015.8893,-1084 1242.8893,-1084 1242.8893,-1122"/>
<text text-anchor="middle" x="1129.3893" y="-1106.8" font-family="Times,serif" font-size="14.00" fill="#000000">ticlMultiClustersFromTrackstersMIP</text>
<text text-anchor="middle" x="1129.3893" y="-1091.8" font-family="Times,serif" font-size="14.00" fill="#000000">MultiClustersFromTrackstersProducer</text>
</a>
</g>
</g>
<!-- 442&#45;&gt;1528 -->
<g id="edge27" class="edge">
<title>442&#45;&gt;1528</title>
<path fill="none" stroke="#000000" d="M357.5032,-878C559.5316,-878 1042.8893,-878 1042.8893,-878 1042.8893,-878 1042.8893,-1073.8166 1042.8893,-1073.8166"/>
<polygon fill="#000000" stroke="#000000" points="1039.3894,-1073.8166 1042.8893,-1083.8166 1046.3894,-1073.8167 1039.3894,-1073.8166"/>
</g>
<!-- 1535 -->
<g id="node26" class="node">
<title>1535</title>
<g id="a_node26"><a xlink:title="TrackstersProducer">
<polygon fill="none" stroke="#000000" points="760.8893,-1127 638.8893,-1127 638.8893,-1089 760.8893,-1089 760.8893,-1127"/>
<text text-anchor="middle" x="699.8893" y="-1111.8" font-family="Times,serif" font-size="14.00" fill="#000000">ticlTrackstersMIP</text>
<text text-anchor="middle" x="699.8893" y="-1096.8" font-family="Times,serif" font-size="14.00" fill="#000000">TrackstersProducer</text>
</a>
</g>
</g>
<!-- 442&#45;&gt;1535 -->
<g id="edge28" class="edge">
<title>442&#45;&gt;1535</title>
<path fill="none" stroke="#000000" d="M357.7665,-882C459.8282,-882 614.8893,-882 614.8893,-882 614.8893,-882 614.8893,-1110.5 614.8893,-1110.5 614.8893,-1110.5 628.5665,-1110.5 628.5665,-1110.5"/>
<polygon fill="#000000" stroke="#000000" points="628.5665,-1114.0001 638.5665,-1110.5 628.5665,-1107.0001 628.5665,-1114.0001"/>
</g>
<!-- 1530 -->
<g id="node27" class="node">
<title>1530</title>
<g id="a_node27"><a xlink:title="MultiClustersFromTrackstersProducer">
<polygon fill="none" stroke="#000000" points="1505.8893,-980 1278.8893,-980 1278.8893,-942 1505.8893,-942 1505.8893,-980"/>
<text text-anchor="middle" x="1392.3893" y="-964.8" font-family="Times,serif" font-size="14.00" fill="#000000">ticlMultiClustersFromTrackstersTrk</text>
<text text-anchor="middle" x="1392.3893" y="-949.8" font-family="Times,serif" font-size="14.00" fill="#000000">MultiClustersFromTrackstersProducer</text>
</a>
</g>
</g>
<!-- 442&#45;&gt;1530 -->
<g id="edge29" class="edge">
<title>442&#45;&gt;1530</title>
<path fill="none" stroke="#000000" d="M357.6523,-876C605.1632,-876 1293.8893,-876 1293.8893,-876 1293.8893,-876 1293.8893,-931.7122 1293.8893,-931.7122"/>
<polygon fill="#000000" stroke="#000000" points="1290.3894,-931.7121 1293.8893,-941.7122 1297.3894,-931.7122 1290.3894,-931.7121"/>
</g>
<!-- 383&#45;&gt;1535 -->
<g id="edge30" class="edge">
<title>383&#45;&gt;1535</title>
<path fill="none" stroke="#000000" d="M603.1544,-1118.75C603.1544,-1118.75 628.7584,-1118.75 628.7584,-1118.75"/>
<polygon fill="#000000" stroke="#000000" points="628.7584,-1122.2501 638.7584,-1118.75 628.7584,-1115.2501 628.7584,-1122.2501"/>
</g>
<!-- 384&#45;&gt;1537 -->
<g id="edge31" class="edge">
<title>384&#45;&gt;1537</title>
<path fill="none" stroke="#000000" d="M603.1544,-903C603.1544,-903 628.7584,-903 628.7584,-903"/>
<polygon fill="#000000" stroke="#000000" points="628.7584,-906.5001 638.7584,-903 628.7584,-899.5001 628.7584,-906.5001"/>
</g>
<!-- 1524&#45;&gt;552 -->
<g id="edge33" class="edge">
<title>1524&#45;&gt;552</title>
<path fill="none" stroke="#000000" d="M2116.8893,-962.3185C2116.8893,-1017.8971 2116.8893,-1174.25 2116.8893,-1174.25 2116.8893,-1174.25 2547.0742,-1174.25 2547.0742,-1174.25"/>
<polygon fill="#000000" stroke="#000000" points="2547.0743,-1177.7501 2557.0742,-1174.25 2547.0742,-1170.7501 2547.0743,-1177.7501"/>
</g>
<!-- 1524&#45;&gt;56 -->
<g id="edge32" class="edge">
<title>1524&#45;&gt;56</title>
<path fill="none" stroke="#000000" d="M2154.8893,-923.8395C2154.8893,-873.1395 2154.8893,-739.3333 2154.8893,-739.3333 2154.8893,-739.3333 2527.7313,-739.3333 2527.7313,-739.3333"/>
<polygon fill="#000000" stroke="#000000" points="2527.7313,-742.8334 2537.7313,-739.3333 2527.7312,-735.8334 2527.7313,-742.8334"/>
</g>
<!-- 1252 -->
<g id="node28" class="node">
<title>1252</title>
<g id="a_node28"><a xlink:title="PFTICLProducer">
<polygon fill="none" stroke="#000000" points="2441.3893,-962 2331.3893,-962 2331.3893,-924 2441.3893,-924 2441.3893,-962"/>
<text text-anchor="middle" x="2386.3893" y="-946.8" font-family="Times,serif" font-size="14.00" fill="#000000">pfTICL</text>
<text text-anchor="middle" x="2386.3893" y="-931.8" font-family="Times,serif" font-size="14.00" fill="#000000">PFTICLProducer</text>
</a>
</g>
</g>
<!-- 1524&#45;&gt;1252 -->
<g id="edge34" class="edge">
<title>1524&#45;&gt;1252</title>
<path fill="none" stroke="#000000" d="M2235.0959,-943C2235.0959,-943 2321.3454,-943 2321.3454,-943"/>
<polygon fill="#000000" stroke="#000000" points="2321.3454,-946.5001 2331.3454,-943 2321.3453,-939.5001 2321.3454,-946.5001"/>
</g>
<!-- 1527&#45;&gt;552 -->
<g id="edge36" class="edge">
<title>1527&#45;&gt;552</title>
<path fill="none" stroke="#000000" d="M2230.606,-660.3333C2247.7786,-660.3333 2259.8893,-660.3333 2259.8893,-660.3333 2259.8893,-660.3333 2259.8893,-1164.75 2259.8893,-1164.75 2259.8893,-1164.75 2547.1355,-1164.75 2547.1355,-1164.75"/>
<polygon fill="#000000" stroke="#000000" points="2547.1355,-1168.2501 2557.1355,-1164.75 2547.1355,-1161.2501 2547.1355,-1168.2501"/>
</g>
<!-- 1527&#45;&gt;56 -->
<g id="edge35" class="edge">
<title>1527&#45;&gt;56</title>
<path fill="none" stroke="#000000" d="M2230.5739,-647.6667C2378.3899,-647.6667 2617.8893,-647.6667 2617.8893,-647.6667 2617.8893,-647.6667 2617.8893,-695.8839 2617.8893,-695.8839"/>
<polygon fill="#000000" stroke="#000000" points="2614.3894,-695.8839 2617.8893,-705.8839 2621.3894,-695.8839 2614.3894,-695.8839"/>
</g>
<!-- 1537&#45;&gt;552 -->
<g id="edge37" class="edge">
<title>1537&#45;&gt;552</title>
<path fill="none" stroke="#000000" d="M760.9011,-905C1089.3032,-905 2631.8893,-905 2631.8893,-905 2631.8893,-905 2631.8893,-1149.7329 2631.8893,-1149.7329"/>
<polygon fill="#000000" stroke="#000000" points="2628.3894,-1149.7328 2631.8893,-1159.7329 2635.3894,-1149.7329 2628.3894,-1149.7328"/>
</g>
<!-- 1537&#45;&gt;56 -->
<g id="edge39" class="edge">
<title>1537&#45;&gt;56</title>
<path fill="none" stroke="#000000" d="M761.0127,-898C1080.609,-898 2544.8893,-898 2544.8893,-898 2544.8893,-898 2544.8893,-754.175 2544.8893,-754.175"/>
<polygon fill="#000000" stroke="#000000" points="2548.3894,-754.175 2544.8893,-744.175 2541.3894,-754.1751 2548.3894,-754.175"/>
</g>
<!-- 1537&#45;&gt;1536 -->
<g id="edge38" class="edge">
<title>1537&#45;&gt;1536</title>
<path fill="none" stroke="#000000" d="M699.8893,-922.1819C699.8893,-927.575 699.8893,-932 699.8893,-932 699.8893,-932 1794.8266,-932 1794.8266,-932"/>
<polygon fill="#000000" stroke="#000000" points="1794.8266,-935.5001 1804.8266,-932 1794.8265,-928.5001 1794.8266,-935.5001"/>
</g>
<!-- 1537&#45;&gt;381 -->
<g id="edge40" class="edge">
<title>1537&#45;&gt;381</title>
<path fill="none" stroke="#000000" d="M730.8893,-883.8061C730.8893,-847.1962 730.8893,-771 730.8893,-771 730.8893,-771 786.7709,-771 786.7709,-771"/>
<polygon fill="#000000" stroke="#000000" points="786.7709,-774.5001 796.7709,-771 786.7708,-767.5001 786.7709,-774.5001"/>
</g>
<!-- 1537&#45;&gt;1533 -->
<g id="edge42" class="edge">
<title>1537&#45;&gt;1533</title>
<path fill="none" stroke="#000000" d="M761.0466,-891C884.0849,-891 1149.8893,-891 1149.8893,-891 1149.8893,-891 1149.8893,-764.1287 1149.8893,-764.1287"/>
<polygon fill="#000000" stroke="#000000" points="1153.3894,-764.1286 1149.8893,-754.1287 1146.3894,-764.1287 1153.3894,-764.1286"/>
</g>
<!-- 1537&#45;&gt;1530 -->
<g id="edge41" class="edge">
<title>1537&#45;&gt;1530</title>
<path fill="none" stroke="#000000" d="M761.0474,-912C911.3927,-912 1286.8893,-912 1286.8893,-912 1286.8893,-912 1286.8893,-931.915 1286.8893,-931.915"/>
<polygon fill="#000000" stroke="#000000" points="1283.3894,-931.915 1286.8893,-941.915 1290.3894,-931.915 1283.3894,-931.915"/>
</g>
<!-- 1525&#45;&gt;1537 -->
<g id="edge46" class="edge">
<title>1525&#45;&gt;1537</title>
<path fill="none" stroke="#000000" d="M585.8895,-814C638.5785,-814 699.8893,-814 699.8893,-814 699.8893,-814 699.8893,-873.6883 699.8893,-873.6883"/>
<polygon fill="#000000" stroke="#000000" points="696.3894,-873.6883 699.8893,-883.6883 703.3894,-873.6884 696.3894,-873.6883"/>
</g>
<!-- 1525&#45;&gt;1534 -->
<g id="edge44" class="edge">
<title>1525&#45;&gt;1534</title>
<path fill="none" stroke="#000000" d="M586.0416,-801.3333C840.1603,-801.3333 1655.8893,-801.3333 1655.8893,-801.3333 1655.8893,-801.3333 1655.8893,-702.2128 1655.8893,-702.2128"/>
<polygon fill="#000000" stroke="#000000" points="1659.3894,-702.2128 1655.8893,-692.2128 1652.3894,-702.2128 1659.3894,-702.2128"/>
</g>
<!-- 1525&#45;&gt;1533 -->
<g id="edge43" class="edge">
<title>1525&#45;&gt;1533</title>
<path fill="none" stroke="#000000" d="M585.9796,-795.6667C746.4181,-795.6667 1109.8893,-795.6667 1109.8893,-795.6667 1109.8893,-795.6667 1109.8893,-764.1953 1109.8893,-764.1953"/>
<polygon fill="#000000" stroke="#000000" points="1113.3894,-764.1953 1109.8893,-754.1953 1106.3894,-764.1953 1113.3894,-764.1953"/>
</g>
<!-- 1525&#45;&gt;1535 -->
<g id="edge45" class="edge">
<title>1525&#45;&gt;1535</title>
<path fill="none" stroke="#000000" d="M586.1683,-821C608.3732,-821 626.8893,-821 626.8893,-821 626.8893,-821 626.8893,-1102.25 626.8893,-1102.25 626.8893,-1102.25 628.618,-1102.25 628.618,-1102.25"/>
<polygon fill="#000000" stroke="#000000" points="628.618,-1105.7501 638.618,-1102.25 628.618,-1098.7501 628.618,-1105.7501"/>
</g>
<!-- 1536&#45;&gt;552 -->
<g id="edge48" class="edge">
<title>1536&#45;&gt;552</title>
<path fill="none" stroke="#000000" d="M1857.8893,-957.3147C1857.8893,-1014.503 1857.8893,-1179 1857.8893,-1179 1857.8893,-1179 2547.3318,-1179 2547.3318,-1179"/>
<polygon fill="#000000" stroke="#000000" points="2547.3319,-1182.5001 2557.3318,-1179 2547.3318,-1175.5001 2547.3319,-1182.5001"/>
</g>
<!-- 1536&#45;&gt;56 -->
<g id="edge47" class="edge">
<title>1536&#45;&gt;56</title>
<path fill="none" stroke="#000000" d="M1910.8893,-918.8709C1910.8893,-868.2539 1910.8893,-734.6667 1910.8893,-734.6667 1910.8893,-734.6667 2527.6161,-734.6667 2527.6161,-734.6667"/>
<polygon fill="#000000" stroke="#000000" points="2527.6161,-738.1668 2537.6161,-734.6667 2527.6161,-731.1668 2527.6161,-738.1668"/>
</g>
<!-- 1536&#45;&gt;1524 -->
<g id="edge49" class="edge">
<title>1536&#45;&gt;1524</title>
<path fill="none" stroke="#000000" d="M1963.0976,-940.5C1963.0976,-940.5 1988.6355,-940.5 1988.6355,-940.5"/>
<polygon fill="#000000" stroke="#000000" points="1988.6355,-944.0001 1998.6355,-940.5 1988.6354,-937.0001 1988.6355,-944.0001"/>
</g>
<!-- 1536&#45;&gt;1529 -->
<g id="edge50" class="edge">
<title>1536&#45;&gt;1529</title>
<path fill="none" stroke="#000000" d="M1910.8893,-957.2006C1910.8893,-984.3432 1910.8893,-1030.6667 1910.8893,-1030.6667 1910.8893,-1030.6667 2260.6769,-1030.6667 2260.6769,-1030.6667"/>
<polygon fill="#000000" stroke="#000000" points="2260.677,-1034.1668 2270.6769,-1030.6667 2260.6769,-1027.1668 2260.677,-1034.1668"/>
</g>
<!-- 1529&#45;&gt;552 -->
<g id="edge52" class="edge">
<title>1529&#45;&gt;552</title>
<path fill="none" stroke="#000000" d="M2502.143,-1043.3333C2547.0501,-1043.3333 2587.8893,-1043.3333 2587.8893,-1043.3333 2587.8893,-1043.3333 2587.8893,-1149.85 2587.8893,-1149.85"/>
<polygon fill="#000000" stroke="#000000" points="2584.3894,-1149.85 2587.8893,-1159.85 2591.3894,-1149.8501 2584.3894,-1149.85"/>
</g>
<!-- 1529&#45;&gt;56 -->
<g id="edge51" class="edge">
<title>1529&#45;&gt;56</title>
<path fill="none" stroke="#000000" d="M2501.9792,-1030.6667C2529.4125,-1030.6667 2550.8893,-1030.6667 2550.8893,-1030.6667 2550.8893,-1030.6667 2550.8893,-754.1208 2550.8893,-754.1208"/>
<polygon fill="#000000" stroke="#000000" points="2554.3894,-754.1208 2550.8893,-744.1208 2547.3894,-754.1209 2554.3894,-754.1208"/>
</g>
<!-- 381&#45;&gt;1533 -->
<g id="edge53" class="edge">
<title>381&#45;&gt;1533</title>
<path fill="none" stroke="#000000" d="M980.131,-772C1032.9252,-772 1088.8893,-772 1088.8893,-772 1088.8893,-772 1088.8893,-764.3669 1088.8893,-764.3669"/>
<polygon fill="#000000" stroke="#000000" points="1092.3894,-764.3669 1088.8893,-754.3669 1085.3894,-764.3669 1092.3894,-764.3669"/>
</g>
<!-- 382&#45;&gt;1534 -->
<g id="edge54" class="edge">
<title>382&#45;&gt;1534</title>
<path fill="none" stroke="#000000" d="M1484.0047,-669.3333C1484.0047,-669.3333 1584.2083,-669.3333 1584.2083,-669.3333"/>
<polygon fill="#000000" stroke="#000000" points="1584.2083,-672.8334 1594.2083,-669.3333 1584.2083,-665.8334 1584.2083,-672.8334"/>
</g>
<!-- 1534&#45;&gt;552 -->
<g id="edge56" class="edge">
<title>1534&#45;&gt;552</title>
<path fill="none" stroke="#000000" d="M1716.4623,-679.3333C1867.5895,-679.3333 2246.8893,-679.3333 2246.8893,-679.3333 2246.8893,-679.3333 2246.8893,-1169.5 2246.8893,-1169.5 2246.8893,-1169.5 2547.0312,-1169.5 2547.0312,-1169.5"/>
<polygon fill="#000000" stroke="#000000" points="2547.0312,-1173.0001 2557.0312,-1169.5 2547.0311,-1166.0001 2547.0312,-1173.0001"/>
</g>
<!-- 1534&#45;&gt;56 -->
<g id="edge55" class="edge">
<title>1534&#45;&gt;56</title>
<path fill="none" stroke="#000000" d="M1685.8893,-692.1385C1685.8893,-700.3096 1685.8893,-708 1685.8893,-708 1685.8893,-708 2527.5127,-708 2527.5127,-708"/>
<polygon fill="#000000" stroke="#000000" points="2527.5128,-711.5001 2537.5127,-708 2527.5127,-704.5001 2527.5128,-711.5001"/>
</g>
<!-- 1534&#45;&gt;1527 -->
<g id="edge58" class="edge">
<title>1534&#45;&gt;1527</title>
<path fill="none" stroke="#000000" d="M1716.6729,-663.5C1716.6729,-663.5 1992.9656,-663.5 1992.9656,-663.5"/>
<polygon fill="#000000" stroke="#000000" points="1992.9657,-667.0001 2002.9656,-663.5 1992.9656,-660.0001 1992.9657,-667.0001"/>
</g>
<!-- 1534&#45;&gt;1536 -->
<g id="edge57" class="edge">
<title>1534&#45;&gt;1536</title>
<path fill="none" stroke="#000000" d="M1716.4206,-685.6667C1776.0452,-685.6667 1857.8893,-685.6667 1857.8893,-685.6667 1857.8893,-685.6667 1857.8893,-908.6188 1857.8893,-908.6188"/>
<polygon fill="#000000" stroke="#000000" points="1854.3894,-908.6188 1857.8893,-918.6188 1861.3894,-908.6188 1854.3894,-908.6188"/>
</g>
<!-- 1526&#45;&gt;552 -->
<g id="edge60" class="edge">
<title>1526&#45;&gt;552</title>
<path fill="none" stroke="#000000" d="M1769.1269,-832.3333C2029.5619,-832.3333 2646.8893,-832.3333 2646.8893,-832.3333 2646.8893,-832.3333 2646.8893,-1149.8679 2646.8893,-1149.8679"/>
<polygon fill="#000000" stroke="#000000" points="2643.3894,-1149.8679 2646.8893,-1159.8679 2650.3894,-1149.8679 2643.3894,-1149.8679"/>
</g>
<!-- 1526&#45;&gt;56 -->
<g id="edge59" class="edge">
<title>1526&#45;&gt;56</title>
<path fill="none" stroke="#000000" d="M1769.0168,-819.6667C2008.2268,-819.6667 2541.8893,-819.6667 2541.8893,-819.6667 2541.8893,-819.6667 2541.8893,-754.1572 2541.8893,-754.1572"/>
<polygon fill="#000000" stroke="#000000" points="2545.3894,-754.1572 2541.8893,-744.1572 2538.3894,-754.1572 2545.3894,-754.1572"/>
</g>
<!-- 1533&#45;&gt;552 -->
<g id="edge61" class="edge">
<title>1533&#45;&gt;552</title>
<path fill="none" stroke="#000000" d="M1190.4108,-747.3333C1475.4373,-747.3333 2661.8893,-747.3333 2661.8893,-747.3333 2661.8893,-747.3333 2661.8893,-1149.8948 2661.8893,-1149.8948"/>
<polygon fill="#000000" stroke="#000000" points="2658.3894,-1149.8948 2661.8893,-1159.8948 2665.3894,-1149.8949 2658.3894,-1149.8948"/>
</g>
<!-- 1533&#45;&gt;56 -->
<g id="edge62" class="edge">
<title>1533&#45;&gt;56</title>
<path fill="none" stroke="#000000" d="M1190.4742,-725.3333C1190.4742,-725.3333 2527.8576,-725.3333 2527.8576,-725.3333"/>
<polygon fill="#000000" stroke="#000000" points="2527.8577,-728.8334 2537.8576,-725.3333 2527.8576,-721.8334 2527.8577,-728.8334"/>
</g>
<!-- 1533&#45;&gt;1536 -->
<g id="edge63" class="edge">
<title>1533&#45;&gt;1536</title>
<path fill="none" stroke="#000000" d="M1170.8893,-754.1116C1170.8893,-802.6758 1170.8893,-927 1170.8893,-927 1170.8893,-927 1794.8616,-927 1794.8616,-927"/>
<polygon fill="#000000" stroke="#000000" points="1794.8616,-930.5001 1804.8616,-927 1794.8615,-923.5001 1794.8616,-930.5001"/>
</g>
<!-- 1533&#45;&gt;382 -->
<g id="edge64" class="edge">
<title>1533&#45;&gt;382</title>
<path fill="none" stroke="#000000" d="M1129.8893,-715.6868C1129.8893,-698.8146 1129.8893,-677 1129.8893,-677 1129.8893,-677 1290.5795,-677 1290.5795,-677"/>
<polygon fill="#000000" stroke="#000000" points="1290.5795,-680.5001 1300.5795,-677 1290.5795,-673.5001 1290.5795,-680.5001"/>
</g>
<!-- 1533&#45;&gt;1534 -->
<g id="edge66" class="edge">
<title>1533&#45;&gt;1534</title>
<path fill="none" stroke="#000000" d="M1190.6443,-720.6667C1323.2157,-720.6667 1624.8893,-720.6667 1624.8893,-720.6667 1624.8893,-720.6667 1624.8893,-702.1132 1624.8893,-702.1132"/>
<polygon fill="#000000" stroke="#000000" points="1628.3894,-702.1132 1624.8893,-692.1132 1621.3894,-702.1132 1628.3894,-702.1132"/>
</g>
<!-- 1533&#45;&gt;1526 -->
<g id="edge65" class="edge">
<title>1533&#45;&gt;1526</title>
<path fill="none" stroke="#000000" d="M1190.4999,-750.6667C1311.2624,-750.6667 1568.8893,-750.6667 1568.8893,-750.6667 1568.8893,-750.6667 1568.8893,-796.9902 1568.8893,-796.9902"/>
<polygon fill="#000000" stroke="#000000" points="1565.3894,-796.9902 1568.8893,-806.9902 1572.3894,-796.9903 1565.3894,-796.9902"/>
</g>
<!-- 1528&#45;&gt;552 -->
<g id="edge68" class="edge">
<title>1528&#45;&gt;552</title>
<path fill="none" stroke="#000000" d="M1242.9594,-1109.3333C1583.5335,-1109.3333 2572.8893,-1109.3333 2572.8893,-1109.3333 2572.8893,-1109.3333 2572.8893,-1149.9633 2572.8893,-1149.9633"/>
<polygon fill="#000000" stroke="#000000" points="2569.3894,-1149.9632 2572.8893,-1159.9633 2576.3894,-1149.9633 2569.3894,-1149.9632"/>
</g>
<!-- 1528&#45;&gt;56 -->
<g id="edge67" class="edge">
<title>1528&#45;&gt;56</title>
<path fill="none" stroke="#000000" d="M1243.0352,-1096.6667C1580.7496,-1096.6667 2554.8893,-1096.6667 2554.8893,-1096.6667 2554.8893,-1096.6667 2554.8893,-754.1998 2554.8893,-754.1998"/>
<polygon fill="#000000" stroke="#000000" points="2558.3894,-754.1997 2554.8893,-744.1998 2551.3894,-754.1998 2558.3894,-754.1997"/>
</g>
<!-- 1535&#45;&gt;552 -->
<g id="edge70" class="edge">
<title>1535&#45;&gt;552</title>
<path fill="none" stroke="#000000" d="M699.8893,-1127.1149C699.8893,-1149.5552 699.8893,-1183.75 699.8893,-1183.75 699.8893,-1183.75 2547.15,-1183.75 2547.15,-1183.75"/>
<polygon fill="#000000" stroke="#000000" points="2547.15,-1187.2501 2557.15,-1183.75 2547.1499,-1180.2501 2547.15,-1187.2501"/>
</g>
<!-- 1535&#45;&gt;56 -->
<g id="edge69" class="edge">
<title>1535&#45;&gt;56</title>
<path fill="none" stroke="#000000" d="M760.963,-1100C771.3661,-1100 778.8893,-1100 778.8893,-1100 778.8893,-1100 778.8893,-714 778.8893,-714 778.8893,-714 2527.618,-714 2527.618,-714"/>
<polygon fill="#000000" stroke="#000000" points="2527.618,-717.5001 2537.618,-714 2527.618,-710.5001 2527.618,-717.5001"/>
</g>
<!-- 1535&#45;&gt;1528 -->
<g id="edge71" class="edge">
<title>1535&#45;&gt;1528</title>
<path fill="none" stroke="#000000" d="M760.97,-1111C760.97,-1111 1005.6996,-1111 1005.6996,-1111"/>
<polygon fill="#000000" stroke="#000000" points="1005.6997,-1114.5001 1015.6996,-1111 1005.6996,-1107.5001 1005.6997,-1114.5001"/>
</g>
<!-- 1530&#45;&gt;552 -->
<g id="edge73" class="edge">
<title>1530&#45;&gt;552</title>
<path fill="none" stroke="#000000" d="M1505.998,-971C1807.1283,-971 2602.8893,-971 2602.8893,-971 2602.8893,-971 2602.8893,-1149.8047 2602.8893,-1149.8047"/>
<polygon fill="#000000" stroke="#000000" points="2599.3894,-1149.8047 2602.8893,-1159.8047 2606.3894,-1149.8047 2599.3894,-1149.8047"/>
</g>
<!-- 1530&#45;&gt;56 -->
<g id="edge72" class="edge">
<title>1530&#45;&gt;56</title>
<path fill="none" stroke="#000000" d="M1498.8893,-941.7024C1498.8893,-886.1839 1498.8893,-730 1498.8893,-730 1498.8893,-730 2527.8282,-730 2527.8282,-730"/>
<polygon fill="#000000" stroke="#000000" points="2527.8283,-733.5001 2537.8282,-730 2527.8282,-726.5001 2527.8283,-733.5001"/>
</g>
<!-- 1252&#45;&gt;552 -->
<g id="edge75" class="edge">
<title>1252&#45;&gt;552</title>
<path fill="none" stroke="#000000" d="M2441.5998,-949.3333C2509.7911,-949.3333 2616.8893,-949.3333 2616.8893,-949.3333 2616.8893,-949.3333 2616.8893,-1149.8138 2616.8893,-1149.8138"/>
<polygon fill="#000000" stroke="#000000" points="2613.3894,-1149.8137 2616.8893,-1159.8138 2620.3894,-1149.8138 2613.3894,-1149.8137"/>
</g>
<!-- 1252&#45;&gt;56 -->
<g id="edge74" class="edge">
<title>1252&#45;&gt;56</title>
<path fill="none" stroke="#000000" d="M2441.5167,-936.6667C2488.302,-936.6667 2547.8893,-936.6667 2547.8893,-936.6667 2547.8893,-936.6667 2547.8893,-754.1573 2547.8893,-754.1573"/>
<polygon fill="#000000" stroke="#000000" points="2551.3894,-754.1573 2547.8893,-744.1573 2544.3894,-754.1574 2551.3894,-754.1573"/>
</g>
</g>
</svg>
