<?xml version="1.0" encoding="UTF-8" standalone="no"?>
<!DOCTYPE svg PUBLIC "-//W3C//DTD SVG 1.1//EN"
 "http://www.w3.org/Graphics/SVG/1.1/DTD/svg11.dtd">
<!-- Generated by graphviz version 2.40.1 (20161225.0304)
 -->
<!-- Title: RECO Pages: 1 -->
<svg width="531pt" height="69pt"
 viewBox="0.00 0.00 530.89 69.00" xmlns="http://www.w3.org/2000/svg" xmlns:xlink="http://www.w3.org/1999/xlink">
<g id="graph0" class="graph" transform="scale(1 1) rotate(0) translate(4 65)">
<title>RECO</title>
<polygon fill="#ffffff" stroke="transparent" points="-4,4 -4,-65 526.8893,-65 526.8893,4 -4,4"/>
<text text-anchor="middle" x="261.4446" y="-45.8" font-family="Times,serif" font-size="14.00" fill="#000000">HGCalRecHit</text>
<!-- 64 -->
<g id="node1" class="node">
<title>64</title>
<g id="a_node1"><a xlink:title="HGCalRecHitProducer">
<ellipse fill="none" stroke="#000000" cx="60.4446" cy="-19" rx="60.3893" ry="18"/>
<text text-anchor="middle" x="60.4446" y="-15.3" font-family="Times,serif" font-size="14.00" fill="#000000">HGCalRecHit</text>
</a>
</g>
</g>
<!-- 65 -->
<g id="node2" class="node">
<title>65</title>
<g id="a_node2"><a xlink:title="HGCalUncalibRecHitProducer">
<polygon fill="none" stroke="#000000" points="341.8893,-38 156.8893,-38 156.8893,0 341.8893,0 341.8893,-38"/>
<text text-anchor="middle" x="249.3893" y="-22.8" font-family="Times,serif" font-size="14.00" fill="#000000">HGCalUncalibRecHit</text>
<text text-anchor="middle" x="249.3893" y="-7.8" font-family="Times,serif" font-size="14.00" fill="#000000">HGCalUncalibRecHitProducer</text>
</a>
</g>
</g>
<!-- 64&#45;&gt;65 -->
<g id="edge1" class="edge">
<title>64&#45;&gt;65</title>
<path fill="none" stroke="#000000" d="M121.0075,-19C121.0075,-19 146.8207,-19 146.8207,-19"/>
<polygon fill="#000000" stroke="#000000" points="146.8208,-22.5001 156.8207,-19 146.8207,-15.5001 146.8208,-22.5001"/>
</g>
<!-- 441 -->
<g id="node3" class="node">
<title>441</title>
<g id="a_node3"><a xlink:title="HGCalRawToDigiFake">
<polygon fill="none" stroke="#000000" points="522.8893,-38 377.8893,-38 377.8893,0 522.8893,0 522.8893,-38"/>
<text text-anchor="middle" x="450.3893" y="-22.8" font-family="Times,serif" font-size="14.00" fill="#000000">hgcalDigis</text>
<text text-anchor="middle" x="450.3893" y="-7.8" font-family="Times,serif" font-size="14.00" fill="#000000">HGCalRawToDigiFake</text>
</a>
</g>
</g>
<!-- 65&#45;&gt;441 -->
<g id="edge2" class="edge">
<title>65&#45;&gt;441</title>
<path fill="none" stroke="#000000" d="M341.9469,-19C341.9469,-19 367.8719,-19 367.8719,-19"/>
<polygon fill="#000000" stroke="#000000" points="367.872,-22.5001 377.8719,-19 367.8719,-15.5001 367.872,-22.5001"/>
</g>
</g>
</svg>
